<svg version="1.1" id="Layer_1" xmlns="http://www.w3.org/2000/svg" xmlns:xlink="http://www.w3.org/1999/xlink" x="0px" y="0px"
	 width="100%" viewBox="0 0 2538 1664" enable-background="new 0 0 2538 1664" xml:space="preserve">
<path fill="#FEFEFE" opacity="1.000000" stroke="none" 
	d="
M2384.000000,1666.000000 
	C1589.427612,1666.000000 795.855225,1666.000000 2.141422,1666.000000 
	C2.141422,1111.493530 2.141422,556.987000 2.141422,2.240257 
	C847.999939,2.240257 1694.000000,2.240257 2539.989746,2.240257 
	C2539.989746,556.811890 2539.989746,1111.406006 2539.984863,1666.000000 
	C2488.319824,1666.000000 2436.659912,1666.000000 2384.000000,1666.000000 
M1376.764771,882.999146 
	C1376.764771,896.871094 1376.764771,910.742981 1376.764771,924.782349 
	C1390.714722,924.782349 1403.218262,924.782349 1416.258911,924.782349 
	C1416.433472,921.364563 1416.709839,918.440674 1416.712769,915.516541 
	C1416.742920,885.862549 1416.761963,856.208557 1416.695801,826.554688 
	C1416.683838,821.230103 1416.577271,815.871765 1415.984741,810.588318 
	C1413.446167,787.950623 1401.948975,771.511841 1379.996460,764.827820 
	C1354.181030,756.967529 1330.550415,761.465454 1311.485718,782.142151 
	C1309.936768,783.822021 1308.431396,785.541931 1306.483398,787.714172 
	C1304.728882,785.263123 1303.535522,782.819458 1301.662964,781.127197 
	C1296.290039,776.271484 1291.270264,770.498047 1284.989258,767.268372 
	C1262.182251,755.540833 1232.912354,761.182800 1215.162231,779.760376 
	C1213.770142,781.217346 1212.148071,782.454773 1210.092773,784.271667 
	C1209.616211,777.541016 1209.222412,771.978027 1208.806030,766.098206 
	C1195.512573,766.098206 1182.948364,766.098206 1170.214844,766.098206 
	C1170.214844,819.229614 1170.214844,872.020752 1170.214844,924.805176 
	C1183.769165,924.805176 1196.651855,924.805176 1210.440063,924.805176 
	C1210.440063,921.073792 1210.440796,917.811523 1210.440063,914.549194 
	C1210.434082,890.559448 1210.320923,866.568909 1210.496826,842.580505 
	C1210.540527,836.618408 1211.041504,830.570374 1212.176758,824.725891 
	C1214.015259,815.261841 1218.957520,807.421265 1226.727051,801.576050 
	C1243.685669,788.817871 1265.663940,795.974854 1271.167114,816.379333 
	C1272.788696,822.391846 1273.102417,828.888611 1273.153564,835.170471 
	C1273.373047,862.157166 1273.255371,889.146667 1273.309937,916.134949 
	C1273.315796,919.023865 1273.642822,921.912170 1273.810547,924.633057 
	C1287.208008,924.633057 1299.732788,924.633057 1312.726074,924.633057 
	C1312.916016,921.454651 1313.194946,918.863342 1313.205200,916.270996 
	C1313.260864,902.277161 1313.241455,888.283081 1313.264526,874.289062 
	C1313.286011,861.294922 1313.273560,848.300293 1313.379028,835.306702 
	C1313.459229,825.431702 1315.829834,816.181580 1321.552979,807.987854 
	C1329.407471,796.742859 1340.656372,794.099365 1353.326294,796.214905 
	C1364.673706,798.109619 1371.600464,805.508240 1374.541504,816.277466 
	C1376.010986,821.658325 1376.561523,827.418274 1376.657715,833.021729 
	C1376.932373,849.010193 1376.761108,865.006287 1376.764771,882.999146 
M1584.271851,774.656982 
	C1551.078491,754.871033 1519.804199,755.795166 1489.738037,785.010925 
	C1489.738037,777.594849 1489.738037,771.857178 1489.738037,766.159424 
	C1476.275269,766.159424 1464.073608,766.159424 1451.593994,766.159424 
	C1451.593994,840.200806 1451.593994,913.730713 1451.593994,987.364441 
	C1464.907715,987.364441 1477.651978,987.364441 1491.130371,987.364441 
	C1491.130371,977.703003 1491.130981,968.746887 1491.130249,959.790771 
	C1491.129639,951.127502 1490.936401,942.458862 1491.180298,933.802490 
	C1491.424561,925.132019 1490.008179,916.321472 1492.399902,906.716431 
	C1501.568848,915.831482 1510.780396,922.662109 1522.246216,926.113037 
	C1561.521606,937.934021 1601.833008,914.798828 1611.861816,874.388916 
	C1615.759644,858.683472 1616.397705,842.731262 1613.639648,826.787903 
	C1610.133545,806.520935 1602.088379,788.613525 1584.271851,774.656982 
M1739.506226,819.420410 
	C1734.992554,825.784485 1728.045776,827.046631 1721.067627,827.925903 
	C1713.797852,828.841980 1706.462769,829.227966 1699.178833,830.046082 
	C1685.258667,831.609558 1671.448608,833.641418 1658.562988,839.678223 
	C1641.267456,847.781189 1633.269897,861.627136 1633.377930,880.382690 
	C1633.486938,899.291687 1640.961304,913.877625 1658.683594,922.206543 
	C1674.739258,929.752197 1691.495605,930.188171 1708.540649,926.943420 
	C1721.329590,924.508850 1732.623657,919.301147 1740.695190,908.502319 
	C1741.131592,907.918579 1742.389526,907.948853 1743.014648,907.766418 
	C1744.666382,913.639465 1746.246338,919.257446 1747.761719,924.645569 
	C1761.165649,924.645569 1773.308960,924.645569 1786.905640,924.645569 
	C1778.546509,907.035767 1781.337769,889.246887 1780.965332,871.752869 
	C1780.695801,859.092834 1780.940308,846.422791 1780.801758,833.758850 
	C1780.714355,825.765381 1780.852539,817.720215 1779.998535,809.794189 
	C1777.911377,790.424805 1768.671875,775.581665 1750.035767,768.406799 
	C1722.724487,757.892151 1695.206909,758.511108 1668.261230,769.848511 
	C1653.513306,776.053711 1644.398071,787.624451 1640.823242,803.283081 
	C1640.059326,806.629150 1640.102295,810.159485 1639.743530,813.919983 
	C1653.027344,814.514893 1664.946289,815.048645 1676.913086,815.584595 
	C1677.955322,812.285645 1678.810669,809.795288 1679.527954,807.265625 
	C1681.427979,800.564392 1685.975586,796.314392 1692.427490,794.490967 
	C1703.169678,791.455139 1714.118042,790.858887 1725.005859,793.824097 
	C1736.967773,797.081848 1741.956177,805.188232 1739.506226,819.420410 
M627.980652,923.117676 
	C649.566101,914.710999 663.256592,899.470947 669.366455,875.778992 
	C661.927307,875.778992 655.639343,875.778992 649.351440,875.778992 
	C643.069153,875.778992 636.786804,875.778992 630.851013,875.778992 
	C617.427429,895.932800 598.337402,902.303467 577.213318,894.068481 
	C561.998230,888.137024 551.232544,871.367859 553.516113,855.913574 
	C592.795044,855.913574 632.230225,855.913574 673.065796,855.913574 
	C671.935669,843.934570 672.093140,832.808105 669.665222,822.277710 
	C662.490234,791.157471 644.206909,769.722473 611.975342,763.193176 
	C601.728210,761.117310 590.629761,761.005676 580.228577,762.359497 
	C552.155579,766.013489 531.363403,780.679565 519.725098,806.963074 
	C509.255798,830.606323 509.042694,854.748474 517.733521,878.938232 
	C526.909607,904.478516 545.163940,920.013794 571.420959,926.185364 
	C589.983643,930.548401 608.401428,929.883728 627.980652,923.117676 
M2408.420166,768.352783 
	C2393.020020,761.793945 2376.886719,760.011841 2360.462158,762.058472 
	C2328.194580,766.079102 2305.755615,783.155151 2294.384766,813.867493 
	C2288.593262,829.509827 2287.980957,845.826294 2290.435791,862.153748 
	C2295.375000,895.002014 2317.203613,918.415100 2349.404541,926.288818 
	C2361.890869,929.341858 2374.502441,929.914551 2387.071777,927.909790 
	C2418.567871,922.886108 2441.163330,906.535950 2451.067871,875.279846 
	C2453.258545,868.365784 2454.625977,861.007507 2455.114258,853.768921 
	C2457.215332,822.607605 2447.176514,785.398010 2408.420166,768.352783 
M1132.796509,889.720886 
	C1161.473389,843.911987 1141.217407,777.371399 1077.016235,764.483215 
	C1052.166260,759.494690 1026.447754,760.131409 1001.385437,764.309631 
	C963.251770,770.666931 922.941284,808.023499 935.402588,864.921021 
	C936.964722,872.053467 939.069824,878.969849 943.526917,885.022705 
	C952.553955,884.053955 959.666443,879.985840 966.189758,874.632629 
	C970.856689,870.802917 972.489685,867.183899 970.396301,860.257263 
	C959.414429,823.921448 987.914368,797.415039 1014.767151,796.236206 
	C1031.064819,795.520752 1047.454590,795.575562 1063.748413,796.383545 
	C1096.637451,798.014526 1118.743164,831.970215 1107.342896,862.550110 
	C1100.057495,882.092041 1081.875122,894.583435 1059.142456,895.253967 
	C1047.819214,895.588013 1036.468628,895.640320 1025.150757,895.239868 
	C1018.930664,895.019775 1014.743774,896.837158 1010.767761,901.899048 
	C1006.089478,907.855286 999.972900,912.681641 994.481445,917.999451 
	C992.957214,919.475464 991.438171,920.956848 988.498901,923.814270 
	C998.090881,925.559265 1005.849243,927.912964 1013.683838,928.202209 
	C1030.655151,928.828918 1047.712036,929.200867 1064.649536,928.220703 
	C1092.810059,926.591064 1115.802979,914.634644 1132.796509,889.720886 
M2090.424561,913.658325 
	C2109.060059,864.672485 2127.695801,815.686646 2146.591553,766.017395 
	C2131.855225,766.017395 2118.381348,766.017395 2104.617432,766.017395 
	C2091.393311,804.426025 2078.302490,842.448181 2065.211670,880.470337 
	C2064.645508,880.414856 2064.079346,880.359314 2063.513428,880.303833 
	C2049.880615,842.222595 2036.248047,804.141418 2022.668579,766.208679 
	C2008.267456,766.208679 1994.482788,766.208679 1979.804932,766.208679 
	C1999.998779,817.226746 2019.781128,867.331055 2039.671509,917.392395 
	C2047.345093,936.705811 2034.748901,956.075439 2014.074707,956.414978 
	C2008.510864,956.506348 2002.944336,956.428833 1997.247559,956.428833 
	C1997.247559,967.400696 1997.247559,977.479004 1997.247559,988.128052 
	C2008.348267,988.128052 2018.684326,988.560669 2028.971436,988.036316 
	C2049.223389,987.004028 2064.708740,978.559509 2072.461914,958.668945 
	C2078.140381,944.101196 2084.120117,929.650757 2090.424561,913.658325 
M924.689209,796.022705 
	C929.321838,796.022705 933.954529,796.022705 938.587158,796.022705 
	C937.726196,794.940186 936.865173,793.857605 936.004211,792.775085 
	C944.864319,784.358948 953.724426,775.942871 962.376892,767.723999 
	C962.553833,767.801819 960.900513,766.794861 959.107117,766.339905 
	C954.274597,765.114014 949.421326,763.435791 944.507202,763.157593 
	C922.239746,761.897217 899.833191,760.199280 877.744385,764.118713 
	C829.668396,772.649170 799.474304,820.657837 811.969910,867.726013 
	C820.688721,900.567749 852.623047,926.610596 887.225769,928.191406 
	C904.515198,928.981262 921.871704,928.589111 939.190308,928.290405 
	C945.128723,928.187988 951.143677,927.177124 956.954102,925.842957 
	C1004.812317,914.853882 1032.058105,868.215698 1017.769836,821.684753 
	C1016.075256,816.166260 1013.233032,811.000183 1011.003967,805.858215 
	C996.868774,810.178772 991.050415,813.926086 983.234070,823.436157 
	C983.924194,826.070923 984.767090,828.925476 985.416138,831.823547 
	C990.893616,856.279053 981.860046,877.545410 961.244446,888.970337 
	C953.164673,893.447876 944.408875,895.223633 935.320007,895.331177 
	C921.993164,895.488892 908.661804,895.447510 895.334839,895.285278 
	C891.696838,895.240967 888.012878,894.722778 884.443481,893.975464 
	C859.606750,888.775635 842.060059,865.782227 844.415833,841.685974 
	C846.988770,815.368469 867.503967,796.359253 893.785339,796.045410 
	C903.447327,795.929993 913.111877,796.025208 924.689209,796.022705 
M375.108368,831.128967 
	C374.774597,824.485168 375.054596,817.741028 373.988281,811.216980 
	C371.153015,793.869690 364.420013,778.746033 348.173340,769.513123 
	C325.992035,756.907654 287.629333,757.297058 267.789673,781.929932 
	C267.004730,782.904480 266.975464,784.487671 266.594147,785.787292 
	C265.695587,785.207336 264.797058,784.627380 263.898529,784.047424 
	C263.450317,778.025696 263.002136,772.003967 262.550171,765.931274 
	C249.559250,765.931274 237.357239,765.931274 225.256638,765.931274 
	C225.256638,819.132690 225.256638,871.830750 225.256638,924.695068 
	C238.574661,924.695068 251.071655,924.695068 264.438171,924.695068 
	C264.438171,920.928284 264.433594,917.663086 264.438934,914.397888 
	C264.477112,891.091797 264.420898,867.784851 264.623352,844.480164 
	C264.675201,838.515686 265.051025,832.465027 266.150421,826.618042 
	C268.134094,816.068054 273.559998,807.469177 282.673676,801.473572 
	C305.330627,786.568298 331.747894,798.971741 334.333893,825.768433 
	C334.716675,829.734802 334.709564,833.747803 334.720520,837.739624 
	C334.791840,863.709167 334.801880,889.678894 334.882477,915.648438 
	C334.891479,918.544373 335.217926,921.439392 335.408478,924.517822 
	C348.835907,924.517822 361.593109,924.517822 375.110870,924.517822 
	C375.110870,893.576050 375.110870,863.334412 375.108368,831.128967 
M1829.355225,765.556458 
	C1824.760742,765.556458 1820.166382,765.556458 1815.742188,765.556458 
	C1815.742188,819.256592 1815.742188,871.998840 1815.742188,924.596191 
	C1829.279785,924.596191 1841.815308,924.596191 1855.331177,924.596191 
	C1855.331177,920.756470 1855.332031,917.511292 1855.330933,914.266113 
	C1855.324707,895.275452 1855.259766,876.284546 1855.339600,857.294250 
	C1855.373169,849.303162 1855.468750,841.297913 1855.974487,833.326965 
	C1856.579468,823.790894 1859.811523,815.091614 1866.045288,807.746216 
	C1876.047485,795.960266 1889.113281,793.704224 1903.274292,797.133301 
	C1916.605591,800.361572 1922.661011,810.333740 1924.486816,823.229248 
	C1925.137695,827.826233 1925.484741,832.502625 1925.511963,837.145508 
	C1925.666382,863.465271 1925.663086,889.785950 1925.771851,916.106079 
	C1925.783691,918.956360 1926.171265,921.805115 1926.385986,924.674316 
	C1939.698120,924.674316 1952.205444,924.674316 1965.093140,924.674316 
	C1965.291870,922.510071 1965.566406,920.913330 1965.566162,919.316528 
	C1965.563110,886.332825 1965.595337,853.348755 1965.429199,820.365723 
	C1965.404175,815.400818 1964.826294,810.356079 1963.806274,805.494690 
	C1960.908691,791.686157 1954.607544,779.955017 1942.586426,771.726013 
	C1921.776489,757.480530 1881.156494,755.994568 1860.679199,779.478210 
	C1859.364258,780.986145 1857.475708,781.993896 1854.240845,784.468140 
	C1854.240845,777.059509 1854.240845,771.573181 1854.240845,765.556885 
	C1845.864136,765.556885 1838.552856,765.556885 1829.355225,765.556458 
M460.404175,740.651855 
	C460.404175,735.167175 460.404175,729.682495 460.404175,724.495239 
	C446.501343,724.495239 434.039337,724.495239 420.941803,724.495239 
	C420.941803,738.379150 420.941803,751.586426 420.941803,765.778076 
	C411.467255,765.778076 402.627411,765.778076 393.601166,765.778076 
	C393.601166,776.275757 393.601166,785.754272 393.601166,796.214844 
	C403.175415,796.214844 411.987732,796.214844 420.932251,796.214844 
	C420.932251,820.852783 420.845184,844.489685 420.980743,868.125366 
	C421.026520,876.109375 421.202881,884.138428 422.084991,892.061646 
	C423.588593,905.567383 429.856079,916.032043 443.119019,921.163025 
	C460.462952,927.872864 478.188324,926.550171 496.203674,924.298523 
	C496.203674,913.599609 496.203674,903.764343 496.203674,893.486938 
	C489.683105,893.799805 483.728699,894.377991 477.782043,894.306946 
	C467.029663,894.178650 461.956848,889.498535 460.600555,878.856079 
	C460.265350,876.225708 460.304688,873.537231 460.308990,870.875610 
	C460.345917,847.895508 460.402924,824.915405 460.494476,801.935425 
	C460.501831,800.088074 460.811829,798.241943 461.063385,795.498779 
	C473.182434,795.498779 484.659576,795.498779 496.205994,795.498779 
	C496.205994,785.090637 496.205994,775.672485 496.205994,765.288452 
	C483.871063,765.288452 472.361176,765.288452 460.397308,765.288452 
	C460.397308,757.030579 460.397308,749.740845 460.404175,740.651855 
M738.298767,871.247559 
	C738.793884,858.949280 738.458801,846.547913 739.970947,834.376038 
	C742.488892,814.107971 755.125854,802.249023 775.404846,799.818420 
	C782.221741,799.001404 789.128174,798.932373 796.631958,798.483215 
	C796.631958,786.520142 796.631958,775.031311 796.631958,762.900635 
	C788.701050,761.731140 781.045776,761.115784 773.717041,763.466553 
	C766.827148,765.676697 759.669861,768.097534 753.790344,772.120972 
	C747.852661,776.184204 743.340149,782.330200 737.807617,787.966797 
	C737.381226,780.275879 736.984192,773.114624 736.592529,766.050720 
	C723.184570,766.050720 710.958435,766.050720 698.631042,766.050720 
	C698.631042,819.038818 698.631042,871.555054 698.631042,924.612549 
	C711.939148,924.612549 724.756836,924.612549 738.295532,924.612549 
	C738.295532,907.095032 738.295532,890.143677 738.298767,871.247559 
M188.684357,855.001282 
	C188.647446,825.213867 188.610535,795.426392 188.573364,765.429077 
	C174.300613,765.504333 161.505737,765.143555 149.119843,765.659363 
	C149.119843,819.480652 149.119843,871.913635 149.119843,924.478394 
	C162.576294,924.478394 175.333176,924.478394 188.687347,924.478394 
	C188.687347,901.507812 188.687347,879.254578 188.684357,855.001282 
M2262.433350,795.021484 
	C2262.433350,785.448242 2262.433350,775.875000 2262.433350,765.956055 
	C2248.759277,765.956055 2235.936523,765.956055 2223.105225,765.956055 
	C2223.105225,819.096863 2223.105225,871.766296 2223.105225,924.826904 
	C2236.387451,924.826904 2248.914795,924.826904 2262.436768,924.826904 
	C2262.436768,882.003784 2262.436768,839.509521 2262.433350,795.021484 
M143.931671,709.427124 
	C143.486740,711.032227 142.853271,712.611206 142.626495,714.246521 
	C140.704941,728.104248 149.317581,740.172668 163.000046,742.898926 
	C177.104660,745.709351 190.337128,738.454834 194.086975,725.855957 
	C198.150528,712.203064 191.133286,698.906860 177.705688,693.602661 
	C167.785614,689.683899 150.941315,692.797119 143.931671,709.427124 
M2267.732422,711.274353 
	C2266.475098,708.576111 2265.531006,705.670532 2263.905762,703.215820 
	C2257.319092,693.266418 2244.270996,689.214844 2233.134521,693.428833 
	C2222.171387,697.577209 2215.282959,708.472351 2216.290283,720.071045 
	C2217.371826,732.524353 2225.858887,741.502380 2238.605225,743.090881 
	C2259.184570,745.655518 2271.533447,729.209595 2267.732422,711.274353 
M2145.087402,884.195068 
	C2145.087402,897.682190 2145.087402,911.169312 2145.087402,924.561523 
	C2160.491943,924.561523 2174.564453,924.561523 2188.582520,924.561523 
	C2188.582520,909.128174 2188.582520,894.437439 2188.582520,879.156860 
	C2174.926758,879.156860 2162.032227,879.058838 2149.144531,879.301331 
	C2147.785156,879.326843 2146.463623,881.355347 2145.087402,884.195068 
z"/>
<path fill="#0E2437" opacity="1.000000" stroke="none" 
	d="
M1376.765015,881.999268 
	C1376.761108,865.006287 1376.932373,849.010193 1376.657715,833.021729 
	C1376.561523,827.418274 1376.010986,821.658325 1374.541504,816.277466 
	C1371.600464,805.508240 1364.673706,798.109619 1353.326294,796.214905 
	C1340.656372,794.099365 1329.407471,796.742859 1321.552979,807.987854 
	C1315.829834,816.181580 1313.459229,825.431702 1313.379028,835.306702 
	C1313.273560,848.300293 1313.286011,861.294922 1313.264526,874.289062 
	C1313.241455,888.283081 1313.260864,902.277161 1313.205200,916.270996 
	C1313.194946,918.863342 1312.916016,921.454651 1312.726074,924.633057 
	C1299.732788,924.633057 1287.208008,924.633057 1273.810547,924.633057 
	C1273.642822,921.912170 1273.315796,919.023865 1273.309937,916.134949 
	C1273.255371,889.146667 1273.373047,862.157166 1273.153564,835.170471 
	C1273.102417,828.888611 1272.788696,822.391846 1271.167114,816.379333 
	C1265.663940,795.974854 1243.685669,788.817871 1226.727051,801.576050 
	C1218.957520,807.421265 1214.015259,815.261841 1212.176758,824.725891 
	C1211.041504,830.570374 1210.540527,836.618408 1210.496826,842.580505 
	C1210.320923,866.568909 1210.434082,890.559448 1210.440063,914.549194 
	C1210.440796,917.811523 1210.440063,921.073792 1210.440063,924.805176 
	C1196.651855,924.805176 1183.769165,924.805176 1170.214844,924.805176 
	C1170.214844,872.020752 1170.214844,819.229614 1170.214844,766.098206 
	C1182.948364,766.098206 1195.512573,766.098206 1208.806030,766.098206 
	C1209.222412,771.978027 1209.616211,777.541016 1210.092773,784.271667 
	C1212.148071,782.454773 1213.770142,781.217346 1215.162231,779.760376 
	C1232.912354,761.182800 1262.182251,755.540833 1284.989258,767.268372 
	C1291.270264,770.498047 1296.290039,776.271484 1301.662964,781.127197 
	C1303.535522,782.819458 1304.728882,785.263123 1306.483398,787.714172 
	C1308.431396,785.541931 1309.936768,783.822021 1311.485718,782.142151 
	C1330.550415,761.465454 1354.181030,756.967529 1379.996460,764.827820 
	C1401.948975,771.511841 1413.446167,787.950623 1415.984741,810.588318 
	C1416.577271,815.871765 1416.683838,821.230103 1416.695801,826.554688 
	C1416.761963,856.208557 1416.742920,885.862549 1416.712769,915.516541 
	C1416.709839,918.440674 1416.433472,921.364563 1416.258911,924.782349 
	C1403.218262,924.782349 1390.714722,924.782349 1376.764771,924.782349 
	C1376.764771,910.742981 1376.764771,896.871094 1376.765015,881.999268 
z"/>
<path fill="#0D2336" opacity="1.000000" stroke="none" 
	d="
M1584.832764,775.102295 
	C1602.088379,788.613525 1610.133545,806.520935 1613.639648,826.787903 
	C1616.397705,842.731262 1615.759644,858.683472 1611.861816,874.388916 
	C1601.833008,914.798828 1561.521606,937.934021 1522.246216,926.113037 
	C1510.780396,922.662109 1501.568848,915.831482 1492.399902,906.716431 
	C1490.008179,916.321472 1491.424561,925.132019 1491.180298,933.802490 
	C1490.936401,942.458862 1491.129639,951.127502 1491.130249,959.790771 
	C1491.130981,968.746887 1491.130371,977.703003 1491.130371,987.364441 
	C1477.651978,987.364441 1464.907715,987.364441 1451.593994,987.364441 
	C1451.593994,913.730713 1451.593994,840.200806 1451.593994,766.159424 
	C1464.073608,766.159424 1476.275269,766.159424 1489.738037,766.159424 
	C1489.738037,771.857178 1489.738037,777.594849 1489.738037,785.010925 
	C1519.804199,755.795166 1551.078491,754.871033 1584.832764,775.102295 
M1495.325195,869.110474 
	C1496.537354,871.468262 1497.532227,873.971436 1498.997070,876.160156 
	C1508.267090,890.012695 1521.205566,897.149475 1537.922729,895.390625 
	C1554.456665,893.651123 1564.899658,883.669495 1570.463989,868.346313 
	C1575.881958,853.425903 1575.736450,838.356995 1570.701172,823.430420 
	C1564.498779,805.043823 1550.099121,794.652954 1531.880981,794.908630 
	C1514.208618,795.156799 1499.366089,806.583557 1493.772583,824.634460 
	C1489.311401,839.031799 1489.761963,853.442627 1495.325195,869.110474 
z"/>
<path fill="#0E2337" opacity="1.000000" stroke="none" 
	d="
M1739.804443,818.641968 
	C1741.956177,805.188232 1736.967773,797.081848 1725.005859,793.824097 
	C1714.118042,790.858887 1703.169678,791.455139 1692.427490,794.490967 
	C1685.975586,796.314392 1681.427979,800.564392 1679.527954,807.265625 
	C1678.810669,809.795288 1677.955322,812.285645 1676.913086,815.584595 
	C1664.946289,815.048645 1653.027344,814.514893 1639.743530,813.919983 
	C1640.102295,810.159485 1640.059326,806.629150 1640.823242,803.283081 
	C1644.398071,787.624451 1653.513306,776.053711 1668.261230,769.848511 
	C1695.206909,758.511108 1722.724487,757.892151 1750.035767,768.406799 
	C1768.671875,775.581665 1777.911377,790.424805 1779.998535,809.794189 
	C1780.852539,817.720215 1780.714355,825.765381 1780.801758,833.758850 
	C1780.940308,846.422791 1780.695801,859.092834 1780.965332,871.752869 
	C1781.337769,889.246887 1778.546509,907.035767 1786.905640,924.645569 
	C1773.308960,924.645569 1761.165649,924.645569 1747.761719,924.645569 
	C1746.246338,919.257446 1744.666382,913.639465 1743.014648,907.766418 
	C1742.389526,907.948853 1741.131592,907.918579 1740.695190,908.502319 
	C1732.623657,919.301147 1721.329590,924.508850 1708.540649,926.943420 
	C1691.495605,930.188171 1674.739258,929.752197 1658.683594,922.206543 
	C1640.961304,913.877625 1633.486938,899.291687 1633.377930,880.382690 
	C1633.269897,861.627136 1641.267456,847.781189 1658.562988,839.678223 
	C1671.448608,833.641418 1685.258667,831.609558 1699.178833,830.046082 
	C1706.462769,829.227966 1713.797852,828.841980 1721.067627,827.925903 
	C1728.045776,827.046631 1734.992554,825.784485 1739.804443,818.641968 
M1680.271973,863.163147 
	C1678.537109,865.583862 1676.374146,867.805908 1675.142456,870.460083 
	C1670.276123,880.946655 1674.536865,893.850769 1684.874390,897.273193 
	C1700.519897,902.453003 1716.013916,901.352478 1729.371460,890.864502 
	C1733.547485,887.585693 1736.922363,882.267029 1738.711060,877.193542 
	C1741.801392,868.427979 1740.895142,859.066040 1740.738892,849.649902 
	C1733.467896,851.278992 1727.381714,852.926514 1721.192627,853.951782 
	C1714.632568,855.038452 1707.879395,855.073608 1701.385498,856.414612 
	C1694.635742,857.808472 1688.095093,860.215088 1680.271973,863.163147 
z"/>
<path fill="#0D2336" opacity="1.000000" stroke="none" 
	d="
M627.256042,923.414612 
	C608.401428,929.883728 589.983643,930.548401 571.420959,926.185364 
	C545.163940,920.013794 526.909607,904.478516 517.733521,878.938232 
	C509.042694,854.748474 509.255798,830.606323 519.725098,806.963074 
	C531.363403,780.679565 552.155579,766.013489 580.228577,762.359497 
	C590.629761,761.005676 601.728210,761.117310 611.975342,763.193176 
	C644.206909,769.722473 662.490234,791.157471 669.665222,822.277710 
	C672.093140,832.808105 671.935669,843.934570 673.065796,855.913574 
	C632.230225,855.913574 592.795044,855.913574 553.516113,855.913574 
	C551.232544,871.367859 561.998230,888.137024 577.213318,894.068481 
	C598.337402,902.303467 617.427429,895.932800 630.851013,875.778992 
	C636.786804,875.778992 643.069153,875.778992 649.351440,875.778992 
	C655.639343,875.778992 661.927307,875.778992 669.366455,875.778992 
	C663.256592,899.470947 649.566101,914.710999 627.256042,923.414612 
M630.466431,822.463196 
	C625.353210,801.753052 607.751343,786.556274 579.539795,794.189087 
	C564.308533,798.309937 553.176514,813.676453 554.087708,828.632263 
	C579.814819,828.632263 605.530334,828.632263 631.779785,828.632263 
	C631.381592,826.509155 631.145142,825.248352 630.466431,822.463196 
z"/>
<path fill="#0D2336" opacity="1.000000" stroke="none" 
	d="
M2409.103027,768.692505 
	C2447.176514,785.398010 2457.215332,822.607605 2455.114258,853.768921 
	C2454.625977,861.007507 2453.258545,868.365784 2451.067871,875.279846 
	C2441.163330,906.535950 2418.567871,922.886108 2387.071777,927.909790 
	C2374.502441,929.914551 2361.890869,929.341858 2349.404541,926.288818 
	C2317.203613,918.415100 2295.375000,895.002014 2290.435791,862.153748 
	C2287.980957,845.826294 2288.593262,829.509827 2294.384766,813.867493 
	C2305.755615,783.155151 2328.194580,766.079102 2360.462158,762.058472 
	C2376.886719,760.011841 2393.020020,761.793945 2409.103027,768.692505 
M2410.341309,821.163208 
	C2401.861084,802.586975 2387.497314,794.014465 2367.412598,795.542908 
	C2351.338867,796.766113 2337.853516,808.396790 2332.875244,825.773560 
	C2328.619873,840.626770 2328.987793,855.416016 2334.977539,869.792542 
	C2342.473877,887.786011 2357.132812,897.087280 2375.641602,895.879028 
	C2392.648438,894.768860 2406.983398,882.694458 2411.908447,864.932922 
	C2415.831543,850.784790 2415.351074,836.633057 2410.341309,821.163208 
z"/>
<path fill="#0E2337" opacity="1.000000" stroke="none" 
	d="
M1132.421631,890.341553 
	C1115.802979,914.634644 1092.810059,926.591064 1064.649536,928.220703 
	C1047.712036,929.200867 1030.655151,928.828918 1013.683838,928.202209 
	C1005.849243,927.912964 998.090881,925.559265 988.498901,923.814270 
	C991.438171,920.956848 992.957214,919.475464 994.481445,917.999451 
	C999.972900,912.681641 1006.089478,907.855286 1010.767761,901.899048 
	C1014.743774,896.837158 1018.930664,895.019775 1025.150757,895.239868 
	C1036.468628,895.640320 1047.819214,895.588013 1059.142456,895.253967 
	C1081.875122,894.583435 1100.057495,882.092041 1107.342896,862.550110 
	C1118.743164,831.970215 1096.637451,798.014526 1063.748413,796.383545 
	C1047.454590,795.575562 1031.064819,795.520752 1014.767151,796.236206 
	C987.914368,797.415039 959.414429,823.921448 970.396301,860.257263 
	C972.489685,867.183899 970.856689,870.802917 966.189758,874.632629 
	C959.666443,879.985840 952.553955,884.053955 943.526917,885.022705 
	C939.069824,878.969849 936.964722,872.053467 935.402588,864.921021 
	C922.941284,808.023499 963.251770,770.666931 1001.385437,764.309631 
	C1026.447754,760.131409 1052.166260,759.494690 1077.016235,764.483215 
	C1141.217407,777.371399 1161.473389,843.911987 1132.421631,890.341553 
z"/>
<path fill="#0E2336" opacity="1.000000" stroke="none" 
	d="
M2090.194824,914.403198 
	C2084.120117,929.650757 2078.140381,944.101196 2072.461914,958.668945 
	C2064.708740,978.559509 2049.223389,987.004028 2028.971436,988.036316 
	C2018.684326,988.560669 2008.348267,988.128052 1997.247559,988.128052 
	C1997.247559,977.479004 1997.247559,967.400696 1997.247559,956.428833 
	C2002.944336,956.428833 2008.510864,956.506348 2014.074707,956.414978 
	C2034.748901,956.075439 2047.345093,936.705811 2039.671509,917.392395 
	C2019.781128,867.331055 1999.998779,817.226746 1979.804932,766.208679 
	C1994.482788,766.208679 2008.267456,766.208679 2022.668579,766.208679 
	C2036.248047,804.141418 2049.880615,842.222595 2063.513428,880.303833 
	C2064.079346,880.359314 2064.645508,880.414856 2065.211670,880.470337 
	C2078.302490,842.448181 2091.393311,804.426025 2104.617432,766.017395 
	C2118.381348,766.017395 2131.855225,766.017395 2146.591553,766.017395 
	C2127.695801,815.686646 2109.060059,864.672485 2090.194824,914.403198 
z"/>
<path fill="#0E2337" opacity="1.000000" stroke="none" 
	d="
M923.732239,796.023499 
	C913.111877,796.025208 903.447327,795.929993 893.785339,796.045410 
	C867.503967,796.359253 846.988770,815.368469 844.415833,841.685974 
	C842.060059,865.782227 859.606750,888.775635 884.443481,893.975464 
	C888.012878,894.722778 891.696838,895.240967 895.334839,895.285278 
	C908.661804,895.447510 921.993164,895.488892 935.320007,895.331177 
	C944.408875,895.223633 953.164673,893.447876 961.244446,888.970337 
	C981.860046,877.545410 990.893616,856.279053 985.416138,831.823547 
	C984.767090,828.925476 983.924194,826.070923 983.234070,823.436157 
	C991.050415,813.926086 996.868774,810.178772 1011.003967,805.858215 
	C1013.233032,811.000183 1016.075256,816.166260 1017.769836,821.684753 
	C1032.058105,868.215698 1004.812317,914.853882 956.954102,925.842957 
	C951.143677,927.177124 945.128723,928.187988 939.190308,928.290405 
	C921.871704,928.589111 904.515198,928.981262 887.225769,928.191406 
	C852.623047,926.610596 820.688721,900.567749 811.969910,867.726013 
	C799.474304,820.657837 829.668396,772.649170 877.744385,764.118713 
	C899.833191,760.199280 922.239746,761.897217 944.507202,763.157593 
	C949.421326,763.435791 954.274597,765.114014 959.107117,766.339905 
	C960.900513,766.794861 962.553833,767.801819 962.376892,767.723999 
	C953.724426,775.942871 944.864319,784.358948 936.004211,792.775085 
	C936.865173,793.857605 937.726196,794.940186 938.587158,796.022705 
	C933.954529,796.022705 929.321838,796.022705 923.732239,796.023499 
z"/>
<path fill="#11263A" opacity="1.000000" stroke="none" 
	d="
M375.109619,832.110840 
	C375.110870,863.334412 375.110870,893.576050 375.110870,924.517822 
	C361.593109,924.517822 348.835907,924.517822 335.408478,924.517822 
	C335.217926,921.439392 334.891479,918.544373 334.882477,915.648438 
	C334.801880,889.678894 334.791840,863.709167 334.720520,837.739624 
	C334.709564,833.747803 334.716675,829.734802 334.333893,825.768433 
	C331.747894,798.971741 305.330627,786.568298 282.673676,801.473572 
	C273.559998,807.469177 268.134094,816.068054 266.150421,826.618042 
	C265.051025,832.465027 264.675201,838.515686 264.623352,844.480164 
	C264.420898,867.784851 264.477112,891.091797 264.438934,914.397888 
	C264.433594,917.663086 264.438171,920.928284 264.438171,924.695068 
	C251.071655,924.695068 238.574661,924.695068 225.256638,924.695068 
	C225.256638,871.830750 225.256638,819.132690 225.256638,765.931274 
	C237.357239,765.931274 249.559250,765.931274 262.550171,765.931274 
	C263.002136,772.003967 263.450317,778.025696 263.898529,784.047424 
	C264.797058,784.627380 265.695587,785.207336 266.594147,785.787292 
	C266.975464,784.487671 267.004730,782.904480 267.789673,781.929932 
	C287.629333,757.297058 325.992035,756.907654 348.173340,769.513123 
	C364.420013,778.746033 371.153015,793.869690 373.988281,811.216980 
	C375.054596,817.741028 374.774597,824.485168 375.109619,832.110840 
z"/>
<path fill="#0F2438" opacity="1.000000" stroke="none" 
	d="
M1830.298340,765.556641 
	C1838.552856,765.556885 1845.864136,765.556885 1854.240845,765.556885 
	C1854.240845,771.573181 1854.240845,777.059509 1854.240845,784.468140 
	C1857.475708,781.993896 1859.364258,780.986145 1860.679199,779.478210 
	C1881.156494,755.994568 1921.776489,757.480530 1942.586426,771.726013 
	C1954.607544,779.955017 1960.908691,791.686157 1963.806274,805.494690 
	C1964.826294,810.356079 1965.404175,815.400818 1965.429199,820.365723 
	C1965.595337,853.348755 1965.563110,886.332825 1965.566162,919.316528 
	C1965.566406,920.913330 1965.291870,922.510071 1965.093140,924.674316 
	C1952.205444,924.674316 1939.698120,924.674316 1926.385986,924.674316 
	C1926.171265,921.805115 1925.783691,918.956360 1925.771851,916.106079 
	C1925.663086,889.785950 1925.666382,863.465271 1925.511963,837.145508 
	C1925.484741,832.502625 1925.137695,827.826233 1924.486816,823.229248 
	C1922.661011,810.333740 1916.605591,800.361572 1903.274292,797.133301 
	C1889.113281,793.704224 1876.047485,795.960266 1866.045288,807.746216 
	C1859.811523,815.091614 1856.579468,823.790894 1855.974487,833.326965 
	C1855.468750,841.297913 1855.373169,849.303162 1855.339600,857.294250 
	C1855.259766,876.284546 1855.324707,895.275452 1855.330933,914.266113 
	C1855.332031,917.511292 1855.331177,920.756470 1855.331177,924.596191 
	C1841.815308,924.596191 1829.279785,924.596191 1815.742188,924.596191 
	C1815.742188,871.998840 1815.742188,819.256592 1815.742188,765.556458 
	C1820.166382,765.556458 1824.760742,765.556458 1830.298340,765.556641 
z"/>
<path fill="#0D2337" opacity="1.000000" stroke="none" 
	d="
M460.400757,741.551514 
	C460.397308,749.740845 460.397308,757.030579 460.397308,765.288452 
	C472.361176,765.288452 483.871063,765.288452 496.205994,765.288452 
	C496.205994,775.672485 496.205994,785.090637 496.205994,795.498779 
	C484.659576,795.498779 473.182434,795.498779 461.063385,795.498779 
	C460.811829,798.241943 460.501831,800.088074 460.494476,801.935425 
	C460.402924,824.915405 460.345917,847.895508 460.308990,870.875610 
	C460.304688,873.537231 460.265350,876.225708 460.600555,878.856079 
	C461.956848,889.498535 467.029663,894.178650 477.782043,894.306946 
	C483.728699,894.377991 489.683105,893.799805 496.203674,893.486938 
	C496.203674,903.764343 496.203674,913.599609 496.203674,924.298523 
	C478.188324,926.550171 460.462952,927.872864 443.119019,921.163025 
	C429.856079,916.032043 423.588593,905.567383 422.084991,892.061646 
	C421.202881,884.138428 421.026520,876.109375 420.980743,868.125366 
	C420.845184,844.489685 420.932251,820.852783 420.932251,796.214844 
	C411.987732,796.214844 403.175415,796.214844 393.601166,796.214844 
	C393.601166,785.754272 393.601166,776.275757 393.601166,765.778076 
	C402.627411,765.778076 411.467255,765.778076 420.941803,765.778076 
	C420.941803,751.586426 420.941803,738.379150 420.941803,724.495239 
	C434.039337,724.495239 446.501343,724.495239 460.404175,724.495239 
	C460.404175,729.682495 460.404175,735.167175 460.400757,741.551514 
z"/>
<path fill="#0F2438" opacity="1.000000" stroke="none" 
	d="
M738.297119,872.219971 
	C738.295532,890.143677 738.295532,907.095032 738.295532,924.612549 
	C724.756836,924.612549 711.939148,924.612549 698.631042,924.612549 
	C698.631042,871.555054 698.631042,819.038818 698.631042,766.050720 
	C710.958435,766.050720 723.184570,766.050720 736.592529,766.050720 
	C736.984192,773.114624 737.381226,780.275879 737.807617,787.966797 
	C743.340149,782.330200 747.852661,776.184204 753.790344,772.120972 
	C759.669861,768.097534 766.827148,765.676697 773.717041,763.466553 
	C781.045776,761.115784 788.701050,761.731140 796.631958,762.900635 
	C796.631958,775.031311 796.631958,786.520142 796.631958,798.483215 
	C789.128174,798.932373 782.221741,799.001404 775.404846,799.818420 
	C755.125854,802.249023 742.488892,814.107971 739.970947,834.376038 
	C738.458801,846.547913 738.793884,858.949280 738.297119,872.219971 
z"/>
<path fill="#0F2438" opacity="1.000000" stroke="none" 
	d="
M188.685852,856.001343 
	C188.687347,879.254578 188.687347,901.507812 188.687347,924.478394 
	C175.333176,924.478394 162.576294,924.478394 149.119843,924.478394 
	C149.119843,871.913635 149.119843,819.480652 149.119843,765.659363 
	C161.505737,765.143555 174.300613,765.504333 188.573364,765.429077 
	C188.610535,795.426392 188.647446,825.213867 188.685852,856.001343 
z"/>
<path fill="#0F2438" opacity="1.000000" stroke="none" 
	d="
M2262.435059,796.018311 
	C2262.436768,839.509521 2262.436768,882.003784 2262.436768,924.826904 
	C2248.914795,924.826904 2236.387451,924.826904 2223.105225,924.826904 
	C2223.105225,871.766296 2223.105225,819.096863 2223.105225,765.956055 
	C2235.936523,765.956055 2248.759277,765.956055 2262.433350,765.956055 
	C2262.433350,775.875000 2262.433350,785.448242 2262.435059,796.018311 
z"/>
<path fill="#102638" opacity="1.000000" stroke="none" 
	d="
M144.183868,708.696411 
	C150.941315,692.797119 167.785614,689.683899 177.705688,693.602661 
	C191.133286,698.906860 198.150528,712.203064 194.086975,725.855957 
	C190.337128,738.454834 177.104660,745.709351 163.000046,742.898926 
	C149.317581,740.172668 140.704941,728.104248 142.626495,714.246521 
	C142.853271,712.611206 143.486740,711.032227 144.183868,708.696411 
z"/>
<path fill="#102638" opacity="1.000000" stroke="none" 
	d="
M2267.867920,712.009399 
	C2271.533447,729.209595 2259.184570,745.655518 2238.605225,743.090881 
	C2225.858887,741.502380 2217.371826,732.524353 2216.290283,720.071045 
	C2215.282959,708.472351 2222.171387,697.577209 2233.134521,693.428833 
	C2244.270996,689.214844 2257.319092,693.266418 2263.905762,703.215820 
	C2265.531006,705.670532 2266.475098,708.576111 2267.867920,712.009399 
z"/>
<path fill="#12283A" opacity="1.000000" stroke="none" 
	d="
M2145.105957,883.324829 
	C2146.463623,881.355347 2147.785156,879.326843 2149.144531,879.301331 
	C2162.032227,879.058838 2174.926758,879.156860 2188.582520,879.156860 
	C2188.582520,894.437439 2188.582520,909.128174 2188.582520,924.561523 
	C2174.564453,924.561523 2160.491943,924.561523 2145.087402,924.561523 
	C2145.087402,911.169312 2145.087402,897.682190 2145.105957,883.324829 
z"/>
<path fill="#FBFBFB" opacity="1.000000" stroke="none" 
	d="
M1494.975342,868.410706 
	C1489.761963,853.442627 1489.311401,839.031799 1493.772583,824.634460 
	C1499.366089,806.583557 1514.208618,795.156799 1531.880981,794.908630 
	C1550.099121,794.652954 1564.498779,805.043823 1570.701172,823.430420 
	C1575.736450,838.356995 1575.881958,853.425903 1570.463989,868.346313 
	C1564.899658,883.669495 1554.456665,893.651123 1537.922729,895.390625 
	C1521.205566,897.149475 1508.267090,890.012695 1498.997070,876.160156 
	C1497.532227,873.971436 1496.537354,871.468262 1494.975342,868.410706 
z"/>
<path fill="#F9FAFA" opacity="1.000000" stroke="none" 
	d="
M1680.867432,862.671021 
	C1688.095093,860.215088 1694.635742,857.808472 1701.385498,856.414612 
	C1707.879395,855.073608 1714.632568,855.038452 1721.192627,853.951782 
	C1727.381714,852.926514 1733.467896,851.278992 1740.738892,849.649902 
	C1740.895142,859.066040 1741.801392,868.427979 1738.711060,877.193542 
	C1736.922363,882.267029 1733.547485,887.585693 1729.371460,890.864502 
	C1716.013916,901.352478 1700.519897,902.453003 1684.874390,897.273193 
	C1674.536865,893.850769 1670.276123,880.946655 1675.142456,870.460083 
	C1676.374146,867.805908 1678.537109,865.583862 1680.867432,862.671021 
z"/>
<path fill="#F4F5F6" opacity="1.000000" stroke="none" 
	d="
M630.687561,823.225342 
	C631.145142,825.248352 631.381592,826.509155 631.779785,828.632263 
	C605.530334,828.632263 579.814819,828.632263 554.087708,828.632263 
	C553.176514,813.676453 564.308533,798.309937 579.539795,794.189087 
	C607.751343,786.556274 625.353210,801.753052 630.687561,823.225342 
z"/>
<path fill="#FBFBFB" opacity="1.000000" stroke="none" 
	d="
M2410.656738,821.890503 
	C2415.351074,836.633057 2415.831543,850.784790 2411.908447,864.932922 
	C2406.983398,882.694458 2392.648438,894.768860 2375.641602,895.879028 
	C2357.132812,897.087280 2342.473877,887.786011 2334.977539,869.792542 
	C2328.987793,855.416016 2328.619873,840.626770 2332.875244,825.773560 
	C2337.853516,808.396790 2351.338867,796.766113 2367.412598,795.542908 
	C2387.497314,794.014465 2401.861084,802.586975 2410.656738,821.890503 
z"/>
</svg>